# MagicaVoxel @ Ephtracy

# material
mtllib miner_spatial.mtl
usemtl palette

# normals
vn -1 0 0
vn 1 0 0
vn 0 0 1
vn 0 0 -1
vn 0 -1 0
vn 0 1 0

# texcoords
vt 0.259766 0.5
vt 0.587891 0.5
vt 0.841797 0.5
vt 0.880859 0.5
vt 0.958984 0.5
vt 0.994141 0.5

# verts
v -7 1 1
v -7 1 -1
v -7 5 1
v -7 5 -1
v -6 5 1
v -6 5 -1
v -6 6 1
v -6 6 -1
v -5 6 1
v -5 6 -1
v -5 7 1
v -5 7 -1
v -3 6 -1
v -3 6 -2
v -3 7 -0
v -3 7 -1
v -3 7 -2
v -3 7 -3
v -3 8 -0
v -3 8 -1
v -3 8 -2
v -3 8 -3
v -3 9 -1
v -3 9 -2
v -1 4 1
v -1 4 -1
v -1 5 2
v -1 5 1
v -1 5 -1
v -1 5 -2
v -1 7 2
v -1 7 1
v -1 7 -1
v -1 7 -2
v -1 8 1
v -1 8 -1
v 5 4 1
v 5 4 -1
v 5 5 2
v 5 5 1
v 5 5 -1
v 5 5 -2
v 5 7 2
v 5 7 1
v 5 7 -1
v 5 7 -2
v 5 8 1
v 5 8 -1
v 6 3 1
v 6 3 -1
v 6 4 1
v 6 4 -1
v 6 5 3
v 6 5 2
v 6 5 -2
v 6 5 -3
v 6 7 3
v 6 7 2
v 6 7 -2
v 6 7 -3
v 6 8 1
v 6 8 -1
v 6 9 1
v 6 9 -1
v -5 1 1
v -5 1 -1
v -5 2 1
v -5 2 -0
v -5 3 1
v -5 3 -0
v -5 4 1
v -5 4 -0
v -5 4 -1
v -4 4 1
v -4 4 -1
v -4 5 1
v -4 5 -1
v -2 6 -1
v -2 6 -2
v -2 7 -0
v -2 7 -1
v -2 7 -2
v -2 7 -3
v -2 8 -0
v -2 8 -1
v -2 8 -2
v -2 8 -3
v -2 9 -1
v -2 9 -2
v 4 4 1
v 4 4 -1
v 4 5 2
v 4 5 1
v 4 5 -1
v 4 5 -2
v 4 7 2
v 4 7 1
v 4 7 -1
v 4 7 -2
v 4 8 1
v 4 8 -1
v 6 5 1
v 6 5 -1
v 6 7 1
v 6 7 -1
v 7 4 1
v 7 4 -1
v 7 5 2
v 7 5 1
v 7 5 -1
v 7 5 -2
v 7 7 2
v 7 7 1
v 7 7 -1
v 7 7 -2
v 7 8 1
v 7 8 -1
v 8 3 1
v 8 3 -1
v 8 4 1
v 8 4 -1
v 8 5 3
v 8 5 2
v 8 5 -2
v 8 5 -3
v 8 7 3
v 8 7 2
v 8 7 -2
v 8 7 -3
v 8 8 1
v 8 8 -1
v 8 9 1
v 8 9 -1
v 6 5 3
v 6 7 3
v 8 5 3
v 8 7 3
v -1 5 2
v -1 7 2
v 0 5 2
v 0 7 2
v 3 5 2
v 3 7 2
v 4 5 2
v 4 7 2
v 5 5 2
v 5 7 2
v 6 5 2
v 6 7 2
v -7 1 1
v -7 5 1
v -6 2 1
v -6 3 1
v -6 4 1
v -6 5 1
v -6 6 1
v -5 1 1
v -5 2 1
v -5 3 1
v -5 4 1
v -5 6 1
v -5 7 1
v -4 4 1
v -4 5 1
v -1 4 1
v -1 5 1
v -1 7 1
v -1 8 1
v 0 4 1
v 0 5 1
v 0 7 1
v 0 8 1
v 3 4 1
v 3 5 1
v 3 7 1
v 3 8 1
v 4 4 1
v 4 5 1
v 4 7 1
v 4 8 1
v 5 4 1
v 5 5 1
v 5 7 1
v 5 8 1
v 6 3 1
v 6 4 1
v 6 8 1
v 6 9 1
v 7 4 1
v 7 5 1
v 7 7 1
v 7 8 1
v 8 3 1
v 8 4 1
v 8 8 1
v 8 9 1
v -3 7 -0
v -3 8 -0
v -2 7 -0
v -2 8 -0
v -3 8 -1
v -3 9 -1
v -2 8 -1
v -2 9 -1
v 6 5 -1
v 6 7 -1
v 7 5 -1
v 7 7 -1
v 7 5 -2
v 7 7 -2
v 8 5 -2
v 8 7 -2
v 7 5 2
v 7 7 2
v 8 5 2
v 8 7 2
v 6 5 1
v 6 7 1
v 7 5 1
v 7 7 1
v -7 1 -1
v -7 5 -1
v -6 5 -1
v -6 6 -1
v -5 1 -1
v -5 4 -1
v -5 6 -1
v -5 7 -1
v -4 4 -1
v -4 5 -1
v -3 6 -1
v -3 7 -1
v -2 6 -1
v -2 7 -1
v -1 4 -1
v -1 5 -1
v -1 7 -1
v -1 8 -1
v 0 4 -1
v 0 5 -1
v 0 7 -1
v 0 8 -1
v 3 4 -1
v 3 5 -1
v 3 7 -1
v 3 8 -1
v 4 4 -1
v 4 5 -1
v 4 7 -1
v 4 8 -1
v 5 4 -1
v 5 5 -1
v 5 7 -1
v 5 8 -1
v 6 3 -1
v 6 4 -1
v 6 8 -1
v 6 9 -1
v 7 4 -1
v 7 5 -1
v 7 7 -1
v 7 8 -1
v 8 3 -1
v 8 4 -1
v 8 8 -1
v 8 9 -1
v -3 6 -2
v -3 7 -2
v -3 8 -2
v -3 9 -2
v -2 6 -2
v -2 7 -2
v -2 8 -2
v -2 9 -2
v -1 5 -2
v -1 7 -2
v 0 5 -2
v 0 7 -2
v 3 5 -2
v 3 7 -2
v 4 5 -2
v 4 7 -2
v 5 5 -2
v 5 7 -2
v 6 5 -2
v 6 7 -2
v -3 7 -3
v -3 8 -3
v -2 7 -3
v -2 8 -3
v 6 5 -3
v 6 7 -3
v 8 5 -3
v 8 7 -3
v -7 1 1
v -5 1 1
v -7 1 -1
v -5 1 -1
v 6 3 1
v 8 3 1
v 6 3 -1
v 8 3 -1
v -5 4 1
v -4 4 1
v -1 4 1
v 0 4 1
v 3 4 1
v 4 4 1
v 5 4 1
v 6 4 1
v -5 4 -0
v -5 4 -1
v -4 4 -1
v -1 4 -1
v 0 4 -1
v 3 4 -1
v 4 4 -1
v 5 4 -1
v 6 4 -1
v 6 5 3
v 8 5 3
v -1 5 2
v 0 5 2
v 3 5 2
v 4 5 2
v 5 5 2
v 6 5 2
v 7 5 2
v 8 5 2
v -4 5 1
v -1 5 1
v 0 5 1
v 3 5 1
v 4 5 1
v 5 5 1
v 7 5 1
v -4 5 -1
v -1 5 -1
v 0 5 -1
v 3 5 -1
v 4 5 -1
v 5 5 -1
v 7 5 -1
v -1 5 -2
v 0 5 -2
v 3 5 -2
v 4 5 -2
v 5 5 -2
v 6 5 -2
v 7 5 -2
v 8 5 -2
v 6 5 -3
v 8 5 -3
v -3 6 -1
v -2 6 -1
v -3 6 -2
v -2 6 -2
v 6 7 1
v 7 7 1
v 6 7 -1
v 7 7 -1
v -3 7 -2
v -2 7 -2
v -3 7 -3
v -2 7 -3
v 7 8 1
v 8 8 1
v 7 8 -1
v 8 8 -1
v 7 4 1
v 8 4 1
v 7 4 -1
v 8 4 -1
v -7 5 1
v -6 5 1
v 6 5 1
v 7 5 1
v -7 5 -1
v -6 5 -1
v 6 5 -1
v 7 5 -1
v -6 6 1
v -5 6 1
v -6 6 -1
v -5 6 -1
v 6 7 3
v 8 7 3
v -1 7 2
v 0 7 2
v 3 7 2
v 4 7 2
v 5 7 2
v 6 7 2
v 7 7 2
v 8 7 2
v -5 7 1
v -1 7 1
v 0 7 1
v 3 7 1
v 4 7 1
v 5 7 1
v 7 7 1
v -3 7 -0
v -2 7 -0
v -5 7 -1
v -3 7 -1
v -2 7 -1
v -1 7 -1
v 0 7 -1
v 3 7 -1
v 4 7 -1
v 5 7 -1
v 7 7 -1
v -1 7 -2
v 0 7 -2
v 3 7 -2
v 4 7 -2
v 5 7 -2
v 6 7 -2
v 7 7 -2
v 8 7 -2
v 6 7 -3
v 8 7 -3
v -1 8 1
v 0 8 1
v 3 8 1
v 4 8 1
v 5 8 1
v 6 8 1
v -3 8 -0
v -2 8 -0
v -3 8 -1
v -2 8 -1
v -1 8 -1
v 0 8 -1
v 3 8 -1
v 4 8 -1
v 5 8 -1
v 6 8 -1
v -3 8 -2
v -2 8 -2
v -3 8 -3
v -2 8 -3
v 6 9 1
v 8 9 1
v -3 9 -1
v -2 9 -1
v 6 9 -1
v 8 9 -1
v -3 9 -2
v -2 9 -2

# faces
f 3/6/1 2/6/1 1/6/1
f 4/6/1 2/6/1 3/6/1
f 7/6/1 6/6/1 5/6/1
f 8/6/1 6/6/1 7/6/1
f 11/6/1 10/6/1 9/6/1
f 12/6/1 10/6/1 11/6/1
f 16/6/1 14/6/1 13/6/1
f 17/6/1 14/6/1 16/6/1
f 19/6/1 16/6/1 15/6/1
f 20/5/1 17/5/1 16/5/1
f 20/6/1 16/6/1 19/6/1
f 21/6/1 18/6/1 17/6/1
f 21/5/1 17/5/1 20/5/1
f 22/6/1 18/6/1 21/6/1
f 23/6/1 21/6/1 20/6/1
f 24/6/1 21/6/1 23/6/1
f 28/6/1 26/6/1 25/6/1
f 29/6/1 26/6/1 28/6/1
f 31/6/1 28/6/1 27/6/1
f 32/6/1 28/6/1 31/6/1
f 33/6/1 30/6/1 29/6/1
f 34/6/1 30/6/1 33/6/1
f 35/6/1 33/6/1 32/6/1
f 36/6/1 33/6/1 35/6/1
f 40/6/1 38/6/1 37/6/1
f 41/6/1 38/6/1 40/6/1
f 43/6/1 40/6/1 39/6/1
f 44/6/1 40/6/1 43/6/1
f 45/6/1 42/6/1 41/6/1
f 46/6/1 42/6/1 45/6/1
f 47/6/1 45/6/1 44/6/1
f 48/6/1 45/6/1 47/6/1
f 51/6/1 50/6/1 49/6/1
f 52/6/1 50/6/1 51/6/1
f 57/6/1 54/6/1 53/6/1
f 58/6/1 54/6/1 57/6/1
f 59/6/1 56/6/1 55/6/1
f 60/6/1 56/6/1 59/6/1
f 63/6/1 62/6/1 61/6/1
f 64/6/1 62/6/1 63/6/1
f 65/6/2 66/6/2 67/6/2
f 67/6/2 66/6/2 68/6/2
f 67/3/2 68/3/2 69/3/2
f 68/6/2 66/6/2 70/6/2
f 69/3/2 68/3/2 70/3/2
f 69/4/2 70/4/2 71/4/2
f 70/6/2 66/6/2 72/6/2
f 71/4/2 70/4/2 72/4/2
f 72/6/2 66/6/2 73/6/2
f 74/6/2 75/6/2 76/6/2
f 76/6/2 75/6/2 77/6/2
f 78/6/2 79/6/2 81/6/2
f 81/6/2 79/6/2 82/6/2
f 80/6/2 81/6/2 84/6/2
f 81/5/2 82/5/2 85/5/2
f 84/6/2 81/6/2 85/6/2
f 82/6/2 83/6/2 86/6/2
f 85/5/2 82/5/2 86/5/2
f 86/6/2 83/6/2 87/6/2
f 85/6/2 86/6/2 88/6/2
f 88/6/2 86/6/2 89/6/2
f 90/6/2 91/6/2 93/6/2
f 93/6/2 91/6/2 94/6/2
f 92/6/2 93/6/2 96/6/2
f 96/6/2 93/6/2 97/6/2
f 94/6/2 95/6/2 98/6/2
f 98/6/2 95/6/2 99/6/2
f 97/6/2 98/6/2 100/6/2
f 100/6/2 98/6/2 101/6/2
f 102/2/2 103/2/2 104/2/2
f 104/2/2 103/2/2 105/2/2
f 106/6/2 107/6/2 109/6/2
f 109/6/2 107/6/2 110/6/2
f 108/6/2 109/6/2 112/6/2
f 112/6/2 109/6/2 113/6/2
f 110/6/2 111/6/2 114/6/2
f 114/6/2 111/6/2 115/6/2
f 113/6/2 114/6/2 116/6/2
f 116/6/2 114/6/2 117/6/2
f 118/6/2 119/6/2 120/6/2
f 120/6/2 119/6/2 121/6/2
f 122/6/2 123/6/2 126/6/2
f 126/6/2 123/6/2 127/6/2
f 124/6/2 125/6/2 128/6/2
f 128/6/2 125/6/2 129/6/2
f 130/6/2 131/6/2 132/6/2
f 132/6/2 131/6/2 133/6/2
f 136/6/3 135/6/3 134/6/3
f 137/6/3 135/6/3 136/6/3
f 140/6/3 139/6/3 138/6/3
f 141/6/3 139/6/3 140/6/3
f 142/5/3 141/5/3 140/5/3
f 143/5/3 141/5/3 142/5/3
f 144/6/3 143/6/3 142/6/3
f 145/6/3 143/6/3 144/6/3
f 148/6/3 147/6/3 146/6/3
f 149/6/3 147/6/3 148/6/3
f 152/6/3 151/6/3 150/6/3
f 153/6/3 151/6/3 152/6/3
f 154/6/3 151/6/3 153/6/3
f 155/6/3 151/6/3 154/6/3
f 157/6/3 152/6/3 150/6/3
f 158/3/3 153/3/3 152/3/3
f 158/6/3 152/6/3 157/6/3
f 159/4/3 154/4/3 153/4/3
f 159/3/3 153/3/3 158/3/3
f 160/6/3 156/6/3 155/6/3
f 160/4/3 154/4/3 159/4/3
f 160/6/3 155/6/3 154/6/3
f 161/6/3 156/6/3 160/6/3
f 163/6/3 162/6/3 161/6/3
f 163/6/3 161/6/3 160/6/3
f 164/6/3 162/6/3 163/6/3
f 166/6/3 162/6/3 164/6/3
f 167/6/3 162/6/3 166/6/3
f 169/6/3 166/6/3 165/6/3
f 170/6/3 166/6/3 169/6/3
f 171/6/3 168/6/3 167/6/3
f 172/6/3 168/6/3 171/6/3
f 173/5/3 170/5/3 169/5/3
f 174/5/3 170/5/3 173/5/3
f 175/5/3 172/5/3 171/5/3
f 176/5/3 172/5/3 175/5/3
f 177/6/3 174/6/3 173/6/3
f 178/6/3 174/6/3 177/6/3
f 179/6/3 176/6/3 175/6/3
f 180/6/3 176/6/3 179/6/3
f 182/6/3 179/6/3 178/6/3
f 183/6/3 179/6/3 182/6/3
f 186/6/3 182/6/3 181/6/3
f 187/6/3 184/6/3 183/6/3
f 189/6/3 182/6/3 186/6/3
f 189/6/3 186/6/3 185/6/3
f 190/6/3 182/6/3 189/6/3
f 191/6/3 187/6/3 183/6/3
f 191/6/3 188/6/3 187/6/3
f 192/6/3 188/6/3 191/6/3
f 193/6/3 189/6/3 185/6/3
f 194/6/3 189/6/3 193/6/3
f 195/6/3 188/6/3 192/6/3
f 196/6/3 188/6/3 195/6/3
f 199/6/3 198/6/3 197/6/3
f 200/6/3 198/6/3 199/6/3
f 203/6/3 202/6/3 201/6/3
f 204/6/3 202/6/3 203/6/3
f 207/6/3 206/6/3 205/6/3
f 208/6/3 206/6/3 207/6/3
f 211/6/3 210/6/3 209/6/3
f 212/6/3 210/6/3 211/6/3
f 213/6/4 214/6/4 215/6/4
f 215/6/4 214/6/4 216/6/4
f 217/6/4 218/6/4 219/6/4
f 219/6/4 218/6/4 220/6/4
f 221/6/4 222/6/4 223/6/4
f 221/6/4 223/6/4 225/6/4
f 223/6/4 224/6/4 225/6/4
f 225/6/4 224/6/4 226/6/4
f 226/6/4 224/6/4 227/6/4
f 227/6/4 228/6/4 229/6/4
f 226/6/4 227/6/4 229/6/4
f 229/6/4 228/6/4 230/6/4
f 230/6/4 228/6/4 231/6/4
f 231/6/4 228/6/4 232/6/4
f 230/6/4 231/6/4 233/6/4
f 230/6/4 233/6/4 236/6/4
f 233/6/4 234/6/4 236/6/4
f 236/6/4 234/6/4 237/6/4
f 235/6/4 236/6/4 239/6/4
f 239/6/4 236/6/4 240/6/4
f 237/6/4 238/6/4 241/6/4
f 241/6/4 238/6/4 242/6/4
f 239/5/4 240/5/4 243/5/4
f 243/5/4 240/5/4 244/5/4
f 241/5/4 242/5/4 245/5/4
f 245/5/4 242/5/4 246/5/4
f 243/6/4 244/6/4 247/6/4
f 247/6/4 244/6/4 248/6/4
f 245/6/4 246/6/4 249/6/4
f 249/6/4 246/6/4 250/6/4
f 248/6/4 249/6/4 252/6/4
f 252/6/4 249/6/4 253/6/4
f 251/6/4 252/6/4 256/6/4
f 253/6/4 254/6/4 257/6/4
f 256/6/4 252/6/4 259/6/4
f 255/6/4 256/6/4 259/6/4
f 259/6/4 252/6/4 260/6/4
f 253/6/4 257/6/4 261/6/4
f 257/6/4 258/6/4 261/6/4
f 261/6/4 258/6/4 262/6/4
f 255/6/4 259/6/4 263/6/4
f 263/6/4 259/6/4 264/6/4
f 262/6/4 258/6/4 265/6/4
f 265/6/4 258/6/4 266/6/4
f 267/6/4 268/6/4 271/6/4
f 271/6/4 268/6/4 272/6/4
f 269/6/4 270/6/4 273/6/4
f 273/6/4 270/6/4 274/6/4
f 275/6/4 276/6/4 277/6/4
f 277/6/4 276/6/4 278/6/4
f 277/5/4 278/5/4 279/5/4
f 279/5/4 278/5/4 280/5/4
f 279/6/4 280/6/4 281/6/4
f 281/6/4 280/6/4 282/6/4
f 283/6/4 284/6/4 285/6/4
f 285/6/4 284/6/4 286/6/4
f 287/6/4 288/6/4 289/6/4
f 289/6/4 288/6/4 290/6/4
f 291/6/4 292/6/4 293/6/4
f 293/6/4 292/6/4 294/6/4
f 297/6/5 296/6/5 295/6/5
f 298/6/5 296/6/5 297/6/5
f 301/6/5 300/6/5 299/6/5
f 302/6/5 300/6/5 301/6/5
f 311/6/5 304/6/5 303/6/5
f 312/6/5 304/6/5 311/6/5
f 313/6/5 304/6/5 312/6/5
f 314/6/5 306/6/5 305/6/5
f 315/5/5 307/5/5 306/5/5
f 315/6/5 306/6/5 314/6/5
f 316/6/5 308/6/5 307/6/5
f 316/5/5 307/5/5 315/5/5
f 317/6/5 308/6/5 316/6/5
f 318/6/5 310/6/5 309/6/5
f 319/6/5 310/6/5 318/6/5
f 327/6/5 321/6/5 320/6/5
f 328/6/5 321/6/5 327/6/5
f 329/6/5 321/6/5 328/6/5
f 331/6/5 323/6/5 322/6/5
f 332/5/5 324/5/5 323/5/5
f 332/6/5 323/6/5 331/6/5
f 333/6/5 325/6/5 324/6/5
f 333/5/5 324/5/5 332/5/5
f 334/6/5 325/6/5 333/6/5
f 335/6/5 327/6/5 326/6/5
f 335/6/5 328/6/5 327/6/5
f 336/6/5 328/6/5 335/6/5
f 337/6/5 331/6/5 330/6/5
f 338/6/5 331/6/5 337/6/5
f 341/6/5 335/6/5 334/6/5
f 342/6/5 335/6/5 341/6/5
f 344/6/5 339/6/5 338/6/5
f 345/5/5 340/5/5 339/5/5
f 345/6/5 339/6/5 344/6/5
f 346/6/5 341/6/5 340/6/5
f 346/5/5 340/5/5 345/5/5
f 347/6/5 341/6/5 346/6/5
f 348/6/5 343/6/5 342/6/5
f 349/6/5 343/6/5 348/6/5
f 350/6/5 343/6/5 349/6/5
f 352/6/5 350/6/5 349/6/5
f 352/6/5 351/6/5 350/6/5
f 353/6/5 351/6/5 352/6/5
f 356/6/5 355/6/5 354/6/5
f 357/6/5 355/6/5 356/6/5
f 360/6/5 359/6/5 358/6/5
f 361/6/5 359/6/5 360/6/5
f 364/6/5 363/6/5 362/6/5
f 365/6/5 363/6/5 364/6/5
f 368/6/5 367/6/5 366/6/5
f 369/6/5 367/6/5 368/6/5
f 370/6/6 371/6/6 372/6/6
f 372/6/6 371/6/6 373/6/6
f 374/6/6 375/6/6 378/6/6
f 378/6/6 375/6/6 379/6/6
f 376/6/6 377/6/6 380/6/6
f 380/6/6 377/6/6 381/6/6
f 382/6/6 383/6/6 384/6/6
f 384/6/6 383/6/6 385/6/6
f 386/6/6 387/6/6 393/6/6
f 393/6/6 387/6/6 394/6/6
f 394/6/6 387/6/6 395/6/6
f 388/6/6 389/6/6 397/6/6
f 389/5/6 390/5/6 398/5/6
f 397/6/6 389/6/6 398/6/6
f 390/6/6 391/6/6 399/6/6
f 398/5/6 390/5/6 399/5/6
f 399/6/6 391/6/6 400/6/6
f 392/6/6 393/6/6 401/6/6
f 393/6/6 394/6/6 401/6/6
f 401/6/6 394/6/6 402/6/6
f 396/6/6 397/6/6 403/6/6
f 403/6/6 397/6/6 404/6/6
f 396/6/6 403/6/6 405/6/6
f 405/6/6 403/6/6 406/6/6
f 404/6/6 397/6/6 407/6/6
f 407/6/6 397/6/6 408/6/6
f 400/6/6 401/6/6 411/6/6
f 411/6/6 401/6/6 412/6/6
f 408/6/6 409/6/6 414/6/6
f 409/5/6 410/5/6 415/5/6
f 414/6/6 409/6/6 415/6/6
f 410/6/6 411/6/6 416/6/6
f 415/5/6 410/5/6 416/5/6
f 416/6/6 411/6/6 417/6/6
f 412/6/6 413/6/6 418/6/6
f 418/6/6 413/6/6 419/6/6
f 419/6/6 413/6/6 420/6/6
f 419/6/6 420/6/6 422/6/6
f 420/6/6 421/6/6 422/6/6
f 422/6/6 421/6/6 423/6/6
f 430/6/6 431/6/6 432/6/6
f 432/6/6 431/6/6 433/6/6
f 424/6/6 425/6/6 434/6/6
f 425/5/6 426/5/6 435/5/6
f 434/6/6 425/6/6 435/6/6
f 426/6/6 427/6/6 436/6/6
f 435/5/6 426/5/6 436/5/6
f 436/6/6 427/6/6 437/6/6
f 428/6/6 429/6/6 438/6/6
f 438/6/6 429/6/6 439/6/6
f 440/6/6 441/6/6 442/6/6
f 442/6/6 441/6/6 443/6/6
f 444/6/6 445/6/6 448/6/6
f 448/6/6 445/6/6 449/6/6
f 446/6/6 447/6/6 450/6/6
f 450/6/6 447/6/6 451/6/6
